<svg width="90" height="101" viewBox="0 0 90 101" fill="none" xmlns="http://www.w3.org/2000/svg">
<path d="M89.087 0.199219L81.0541 90.1888L44.9456 100.199L8.93656 90.2029L0.912109 0.199219H89.087Z" fill="#264DE4"/>
<path d="M74.1774 84.4588L81.0421 7.55859H45V92.5479L74.1774 84.4588Z" fill="#2965F1"/>
<path d="M19.3086 40.9395L20.2979 51.9779H45.0002V40.9395H19.3086Z" fill="#EBEBEB"/>
<path d="M44.9998 18.5967H44.9617H17.3203L18.3238 29.6354H44.9998V18.5967Z" fill="#EBEBEB"/>
<path d="M45 81.0923V69.6075L44.9516 69.6204L32.6579 66.3008L31.872 57.4971H25.8982H20.791L22.3375 74.8292L44.9492 81.1064L45 81.0923Z" fill="#EBEBEB"/>
<path d="M58.5537 51.9775L57.2724 66.2937L44.9609 69.6167V81.1009L67.5906 74.8291L67.7566 72.9642L70.3506 43.9032L70.6199 40.939L72.6127 18.5967H44.9609V29.6354H60.5154L59.511 40.939H44.9609V51.9775H58.5537Z" fill="white"/>
</svg>
