<svg width="100" height="52" viewBox="0 0 100 52" fill="none" xmlns="http://www.w3.org/2000/svg">
<path fill-rule="evenodd" clip-rule="evenodd" d="M50 51.5376C77.6143 51.5376 100 40.1927 100 26.199C100 12.2053 77.6143 0.860352 50 0.860352C22.3863 0.860352 0 12.2053 0 26.199C0 40.1927 22.3863 51.5376 50 51.5376Z" fill="#6E81B6"/>
<path fill-rule="evenodd" clip-rule="evenodd" d="M60.1333 34.3892L62.6134 21.6246C63.1732 18.7436 62.7077 16.5949 61.2306 15.2369C59.7995 13.9231 57.3702 13.284 53.8042 13.284H49.5091L50.7376 6.95979C50.7607 6.84209 50.7573 6.72075 50.7279 6.60448C50.6985 6.48821 50.6437 6.37989 50.5675 6.2873C50.4912 6.19471 50.3955 6.12015 50.287 6.06895C50.1785 6.01776 50.0601 5.99121 49.9401 5.99121H44.012C43.6226 5.99121 43.2882 6.26752 43.2139 6.64963L40.5796 20.2008C40.3402 18.6759 39.7501 17.3651 38.8057 16.2835C37.0668 14.2931 34.3164 13.284 30.6301 13.284H19.1401C18.7508 13.284 18.4164 13.5603 18.342 13.9418L13.0112 41.3718C12.9646 41.6106 13.0269 41.8561 13.1817 42.0435C13.3359 42.2315 13.5656 42.3398 13.8093 42.3398H19.784C20.1734 42.3398 20.5077 42.0635 20.5821 41.6807L21.8717 35.0464H26.3193C28.653 35.0464 30.6144 34.7936 32.1453 34.2954C33.7106 33.7864 35.1514 32.923 36.4211 31.7343C37.4471 30.7917 38.2948 29.7361 38.9471 28.5976L37.8824 34.0778C37.8359 34.3166 37.8981 34.5633 38.0529 34.7495C38.2071 34.9375 38.4375 35.0458 38.6805 35.0458H44.6087C44.9981 35.0458 45.3324 34.7694 45.4068 34.3879L48.3325 19.3313H52.4003C54.1337 19.3313 54.6416 19.6766 54.78 19.8247C54.9052 19.9601 55.1652 20.4372 54.8732 21.9408L52.5152 34.0772C52.4926 34.1948 52.4962 34.316 52.5259 34.4321C52.5555 34.5482 52.6104 34.6564 52.6866 34.7488C52.7628 34.8413 52.8585 34.9158 52.9668 34.967C53.0752 35.0182 53.1934 35.0449 53.3133 35.0452H59.3358C59.5242 35.0455 59.7069 34.9802 59.8525 34.8605C59.998 34.7408 60.0973 34.5741 60.1333 34.3892ZM32.6489 23.8423C32.2765 25.7559 31.5751 27.1205 30.563 27.8987C29.5352 28.6913 27.8912 29.0928 25.6766 29.0928H23.0284L24.9432 19.2388H28.3671C30.8822 19.2388 31.8956 19.7763 32.3025 20.2268C32.8666 20.8519 32.9863 22.1029 32.6489 23.8423ZM85.1043 16.2835C83.366 14.2931 80.6156 13.284 76.9293 13.284H65.4393C65.0493 13.284 64.7156 13.5603 64.6412 13.9418L59.311 41.3718C59.2638 41.6106 59.3261 41.8561 59.4809 42.0435C59.6357 42.2309 59.866 42.3398 60.1079 42.3398H66.0832C66.4732 42.3398 66.8069 42.0635 66.8813 41.6807L68.1709 35.0464H72.6191C74.9535 35.0464 76.913 34.7936 78.4445 34.2954C80.0104 33.7864 81.4512 32.923 82.7203 31.7343C83.7795 30.7615 84.6508 29.6677 85.311 28.4869C85.9713 27.3061 86.4447 25.9893 86.721 24.5721C87.4 21.0768 86.8564 18.2884 85.1043 16.2835ZM79.2873 23.8423C78.9143 25.7559 78.2129 27.1205 77.202 27.8987C76.1736 28.6913 74.5296 29.0928 72.3155 29.0928H69.6668L71.5809 19.2388H75.0055C77.5206 19.2388 78.534 19.7763 78.9415 20.2268C79.5043 20.8519 79.6247 22.1029 79.2873 23.8423Z" fill="white"/>
<path fill-rule="evenodd" clip-rule="evenodd" d="M28.1971 18.4259C30.4668 18.4259 31.9802 18.8449 32.7365 19.6829C33.4923 20.5208 33.6725 21.9598 33.277 23.998C32.8635 26.1207 32.0678 27.6359 30.8888 28.544C29.7098 29.4521 27.9154 29.9056 25.5066 29.9056H21.8717L24.1027 18.4259H28.1971ZM13.6387 41.5268H19.6134L21.0313 34.2346H26.1493C28.4075 34.2346 30.2655 33.997 31.7238 33.5224C33.1821 33.0477 34.508 32.2527 35.7009 31.136C36.7022 30.2164 37.5123 29.2006 38.1327 28.0905C38.7524 26.9805 39.1926 25.7562 39.4531 24.4169C40.0856 21.1654 39.6085 18.6327 38.0232 16.8188C36.4386 15.0044 33.9167 14.0975 30.4602 14.0975H18.9701L13.6387 41.5268ZM43.8414 6.80469H49.7696L48.3524 14.0975H53.6343C56.956 14.0975 59.2493 14.6767 60.5105 15.8357C61.7718 16.9948 62.1497 18.8733 61.6454 21.4701L59.1653 34.2346H53.1428L55.5007 22.0977C55.7686 20.7167 55.6706 19.7754 55.2045 19.2729C54.7383 18.7711 53.7462 18.5196 52.2298 18.5196H47.4921L44.4382 34.2346H38.51L43.8414 6.80469ZM74.8356 18.4259C77.1053 18.4259 78.618 18.8449 79.375 19.6829C80.1308 20.5208 80.3104 21.9598 79.9149 23.998C79.5026 26.1207 78.7069 27.6359 77.5273 28.544C76.3489 29.4521 74.5539 29.9056 72.1463 29.9056H68.5114L70.7418 18.4259H74.8356ZM60.276 41.5268H66.2513L67.6685 34.2346H72.7866C75.0454 34.2346 76.9034 33.997 78.3617 33.5224C79.82 33.0477 81.1459 32.2527 82.3388 31.136C83.3401 30.2164 84.1502 29.2006 84.77 28.0905C85.3897 26.9805 85.8305 25.7562 86.0916 24.4169C86.7235 21.1654 86.2464 18.6327 84.6617 16.8188C83.0758 15.0044 80.5546 14.0975 77.098 14.0975H65.608L60.276 41.5268Z" fill="black"/>
</svg>
