<svg width="100" height="101" viewBox="0 0 100 101" fill="none" xmlns="http://www.w3.org/2000/svg">
<path d="M98.1141 45.7437L54.4531 2.08506C51.9402 -0.429395 47.8621 -0.429395 45.3461 2.08506L36.2797 11.1515L47.7809 22.6526C50.4535 21.7495 53.5184 22.3554 55.6488 24.4858C57.7894 26.63 58.391 29.721 57.466 32.4022L68.55 43.4866C71.2316 42.5628 74.3258 43.1604 76.4676 45.3058C79.4609 48.2979 79.4609 53.1476 76.4676 56.1417C73.4734 59.1362 68.6238 59.1362 65.6281 56.1417C63.3766 53.8878 62.8203 50.5812 63.9602 47.8073L53.6234 37.4706L53.6223 64.6726C54.3716 65.0431 55.056 65.5325 55.6488 66.1218C58.6422 69.114 58.6422 73.964 55.6488 76.9604C52.6547 79.9534 47.8027 79.9534 44.8129 76.9604C41.8195 73.964 41.8195 69.1144 44.8129 66.1222C45.5302 65.4045 46.3827 64.8361 47.3211 64.4499V36.9944C46.3814 36.6108 45.5284 36.0421 44.8129 35.3222C42.5449 33.0573 41.9996 29.7296 43.1617 26.9448L31.8242 15.6062L1.88672 45.5417C-0.628906 48.0585 -0.628906 52.137 1.88672 54.6519L45.5484 98.3112C48.0621 100.826 52.1395 100.826 54.6562 98.3112L98.1137 54.8546C100.629 52.339 100.629 48.2581 98.1137 45.7437" fill="#DE4C36"/>
</svg>
