<svg width="100" height="101" viewBox="0 0 100 101" fill="none" xmlns="http://www.w3.org/2000/svg">
<path d="M0 0.199219H100V100.199H0V0.199219Z" fill="#CF4547"/>
<path d="M34.6009 50.8654C34.5539 50.934 34.4716 51.1475 34.3502 51.5098C34.2287 51.8722 34.0818 52.3247 33.9095 52.8692C33.7371 53.4137 33.5491 54.0248 33.3493 54.6986C33.1475 55.3724 32.9399 56.0619 32.7284 56.7631C32.5149 57.4663 32.3112 58.1538 32.1153 58.8295C31.9194 59.5033 31.7431 60.1145 31.5884 60.659C31.4337 61.2035 31.3044 61.6599 31.2006 62.0301C31.0968 62.3983 31.0341 62.6157 31.0106 62.6843C30.9538 62.9017 30.8617 63.1446 30.7344 63.411C30.6071 63.6774 30.4582 63.9281 30.2859 64.167C30.1135 64.406 29.9235 64.6038 29.7159 64.7605C29.5083 64.9172 29.2948 64.9956 29.0773 64.9956C28.7091 64.9956 28.4408 64.8722 28.2743 64.6273C28.1078 64.3825 28.0236 63.932 28.0236 63.2778V62.9918C28.0236 62.8958 28.0294 62.794 28.0412 62.6862C28.0529 62.4688 28.1391 62.0595 28.2997 61.4581C28.4603 60.8588 28.6543 60.1811 28.8776 59.423C29.1008 58.665 29.3437 57.8835 29.6023 57.0706C29.8608 56.2597 30.0939 55.533 30.3015 54.8925C29.6904 55.5742 29.0303 56.2519 28.3154 56.9276C27.6024 57.6034 26.8699 58.2086 26.1236 58.7473C25.3754 59.2859 24.6213 59.7266 23.8613 60.0655C23.1013 60.4063 22.3707 60.5767 21.6695 60.5767C20.8645 60.5767 20.1711 60.3985 19.5893 60.0459C19.0076 59.6914 18.5277 59.2272 18.1477 58.6552C17.7677 58.0833 17.4857 57.4349 17.3016 56.7122C17.1174 55.9894 17.0254 55.2666 17.0254 54.5439V54.2775C17.0254 54.1952 17.0313 54.1149 17.043 54.0327C17.1116 52.7242 17.2996 51.3806 17.6032 50.0036C17.9088 48.6266 18.3083 47.2555 18.8039 45.8942C19.2995 44.531 19.8714 43.199 20.5217 41.8965C21.172 40.5939 21.8791 39.3639 22.6449 38.2063C23.4108 37.0487 24.2237 35.9812 25.0874 35.0057C25.9512 34.0303 26.8366 33.192 27.7454 32.4908C28.6543 31.7895 29.5729 31.2411 30.4994 30.8454C31.4258 30.4498 32.3445 30.252 33.2533 30.252C34.3012 30.252 35.3139 30.5379 36.2913 31.1099C37.2687 31.6818 38.1834 32.6102 39.0354 33.8912C39.2313 34.1772 39.3547 34.4671 39.4056 34.7609C39.4566 35.0547 39.484 35.3309 39.484 35.5894C39.484 36.2025 39.3371 36.6863 39.0433 37.0408C38.7495 37.3954 38.4008 37.5717 37.9993 37.5717C37.631 37.5717 37.2883 37.3777 36.9729 36.988C36.6556 36.6001 36.303 36.0439 35.9113 35.3211C35.543 34.6669 35.1376 34.1929 34.6949 33.8991C34.2523 33.6053 33.7704 33.4603 33.2533 33.4603C32.4483 33.4603 31.5864 33.7953 30.6717 34.4632C29.757 35.1311 28.8501 36.0145 27.953 37.1114C27.0559 38.2082 26.1941 39.4618 25.3715 40.874C24.5488 42.2843 23.8202 43.7298 23.1875 45.2087C22.5548 46.6875 22.0514 48.1467 21.6773 49.5844C21.3032 51.0221 21.1171 52.3149 21.1171 53.4607C21.1171 53.8427 21.1426 54.2344 21.1955 54.6359C21.2484 55.0375 21.3443 55.4038 21.4893 55.7309C21.6323 56.058 21.8281 56.3283 22.0769 56.5379C22.3237 56.7494 22.6371 56.8552 23.0171 56.8552C23.4421 56.8552 23.9259 56.7122 24.4665 56.4262C25.0071 56.1402 25.5693 55.7661 26.1491 55.3019C26.7308 54.8377 27.3145 54.3128 27.9021 53.7271C28.4897 53.1414 29.0362 52.548 29.5416 51.9486C30.0469 51.3492 30.4974 50.7734 30.8872 50.221C31.2789 49.6687 31.5727 49.1888 31.7667 48.7794L33.3728 43.9747C33.5687 43.4576 33.8253 43.0893 34.1406 42.87C34.4579 42.6526 34.7831 42.5429 35.116 42.5429C35.2767 42.5429 35.4373 42.5703 35.5998 42.6251C35.7605 42.68 35.9054 42.7642 36.0308 42.8817C36.1581 42.9973 36.258 43.1481 36.3324 43.3322C36.4068 43.5163 36.4441 43.7318 36.4441 43.9766C36.4441 44.6308 36.3873 45.2439 36.2717 45.8178C36.1561 46.3917 36.0092 46.95 35.831 47.4945C35.6527 48.039 35.4549 48.5894 35.2355 49.1398C35.0201 49.6882 34.8066 50.2641 34.6009 50.8654ZM56.37 54.8729C55.8627 55.5546 55.2731 56.2186 54.6013 56.8669C53.9275 57.5153 53.2341 58.0911 52.5212 58.5945C51.8082 59.0979 51.105 59.5033 50.4155 59.8109C49.7241 60.1184 49.1032 60.2712 48.5508 60.2712C47.9985 60.2712 47.5499 60.087 47.2033 59.7188C46.8585 59.3506 46.6862 58.7238 46.6862 57.8365C46.6862 57.2097 46.7782 56.4791 46.9623 55.6486C46.6627 56.1814 46.2885 56.72 45.84 57.2645C45.3914 57.8091 44.8783 58.3066 44.3024 58.7571C43.7265 59.2076 43.0821 59.5719 42.3692 59.85C41.6562 60.1301 40.8786 60.2692 40.0383 60.2692C39.6583 60.2692 39.292 60.2222 38.9414 60.1262C38.5908 60.0302 38.2833 59.8677 38.0189 59.6365C37.7544 59.4054 37.5409 59.0959 37.3803 58.7061C37.2197 58.3183 37.1394 57.8306 37.1394 57.2449C37.1394 57.2312 37.1629 57.0236 37.2079 56.6221C37.253 56.2205 37.3999 55.5859 37.6487 54.7202C37.8955 53.8544 38.2794 52.734 38.7965 51.3571C39.3155 49.9801 40.0461 48.3113 40.9883 46.3467C41.2292 45.8296 41.5093 45.4574 41.8246 45.2322C42.1419 45.0069 42.4828 44.8953 42.851 44.8953C43.0116 44.8953 43.1781 44.9188 43.3524 44.9658C43.5248 45.0148 43.6854 45.0892 43.8362 45.191C43.9851 45.2929 44.1065 45.4222 44.1986 45.5789C44.2906 45.7356 44.3377 45.9158 44.3377 46.1214C44.3377 46.2585 44.32 46.3878 44.2848 46.5093C44.228 46.7423 44.1046 47.044 43.9126 47.4201C43.7226 47.7961 43.5013 48.2251 43.2486 48.7089C42.9959 49.1927 42.7276 49.7137 42.4455 50.2739C42.1635 50.8321 41.901 51.4119 41.6601 52.0113C41.4192 52.6106 41.2116 53.2218 41.0392 53.8407C40.8668 54.4616 40.7689 55.0649 40.7454 55.6506C40.7454 55.8954 40.8022 56.1206 40.9177 56.3263C41.0333 56.53 41.2233 56.6338 41.4877 56.6338C42.236 56.6338 42.9489 56.389 43.6286 55.8974C44.3083 55.4077 44.9351 54.7966 45.5109 54.0679C46.0868 53.3393 46.6078 52.5558 47.074 51.7155C47.5402 50.8772 47.9299 50.1113 48.2394 49.416C48.4588 48.9518 48.6507 48.4543 48.8172 47.9234C48.9837 47.3926 49.1659 46.901 49.3618 46.4505C49.5576 46 49.7809 45.6259 50.0355 45.3262C50.2882 45.0265 50.6055 44.8757 50.9855 44.8757C51.3988 44.8757 51.7279 45.0324 51.9688 45.3458C52.2097 45.6592 52.3312 46.0352 52.3312 46.4701C52.3312 46.7149 52.2548 47.0538 52.0981 47.4827C51.9414 47.9117 51.7475 48.4033 51.5105 48.9557C51.2754 49.508 51.0188 50.0976 50.7426 50.7244C50.4665 51.3512 50.2099 51.9897 49.9748 52.6361C49.7378 53.2844 49.5439 53.9171 49.3872 54.538C49.2325 55.1589 49.1541 55.7348 49.1541 56.2656C49.1541 56.7572 49.4068 57.0021 49.9141 57.0021C50.2706 57.0021 50.7133 56.8787 51.2441 56.6338C51.7749 56.389 52.3292 56.0443 52.9109 55.6016C53.4927 55.1589 54.0725 54.6379 54.6542 54.0366C55.2359 53.4372 55.7511 52.7889 56.1996 52.0935L56.37 54.8729Z" fill="white" stroke="white" stroke-width="0.264085" stroke-miterlimit="10"/>
<path d="M56.9074 53.8503C56.7801 54.1637 56.6567 54.528 56.5353 54.9452C56.4138 55.3605 56.3551 55.7326 56.3551 56.0597C56.3551 56.2635 56.3903 56.428 56.4589 56.5514C56.5274 56.6748 56.6606 56.7355 56.8565 56.7355C57.0974 56.7355 57.399 56.6513 57.7634 56.4789C58.1257 56.3085 58.5175 56.0833 58.9366 55.8032C59.3578 55.525 59.7945 55.2038 60.249 54.8414C60.7034 54.481 61.1559 54.105 61.6044 53.7171C62.0529 53.3274 62.4819 52.9395 62.8913 52.5517C63.3006 52.1619 63.665 51.8054 63.9881 51.4783C64.0802 51.3824 64.1899 51.3138 64.3153 51.2746C64.4406 51.2335 64.5503 51.2139 64.6424 51.2139C64.8715 51.2139 65.0635 51.3099 65.2123 51.4999C65.3612 51.6899 65.4356 51.9425 65.4356 52.2559C65.4356 52.5419 65.3553 52.8631 65.1947 53.2177C65.0341 53.5722 64.752 53.9208 64.3486 54.2597C63.6121 55.0647 62.8697 55.8267 62.1215 56.5494C61.3733 57.2722 60.629 57.9088 59.8866 58.4611C59.1443 59.0135 58.4078 59.4522 57.6772 59.7813C56.9466 60.1084 56.2356 60.271 55.5441 60.271C55.0721 60.271 54.6784 60.1965 54.3611 60.0457C54.0438 59.8949 53.7911 59.6912 53.6011 59.4327C53.4111 59.1741 53.276 58.8666 53.1957 58.5121C53.1154 58.1575 53.0742 57.7834 53.0742 57.3878C53.0742 56.7198 53.1584 56.0343 53.3249 55.3331C53.4914 54.6319 53.6893 53.9874 53.9204 53.4018C54.3239 52.3382 54.7313 51.2825 55.1465 50.2326C55.5598 49.1827 55.9398 48.221 56.2865 47.3494L61.5163 34.1594C61.7239 33.6286 62.002 33.2525 62.3546 33.0351C62.7052 32.8177 63.0597 32.708 63.4162 32.708C63.7727 32.708 64.0978 32.8236 64.3916 33.0547C64.6854 33.2858 64.8324 33.6619 64.8324 34.179C64.8324 34.4238 64.7834 34.6843 64.6854 34.9566C64.5875 35.2289 64.4641 35.5227 64.3153 35.8361C64.0273 36.4766 63.6846 37.2601 63.2889 38.1865C62.8913 39.113 62.4662 40.1217 62.0118 41.2127C61.5574 42.3037 61.0912 43.4378 60.6133 44.617C60.1354 45.7961 59.6692 46.9439 59.2148 48.0623C58.7604 49.1808 58.3353 50.2404 57.9377 51.2413C57.5362 52.2442 57.1934 53.1139 56.9074 53.8503Z" fill="white" stroke="white" stroke-width="0.264085" stroke-miterlimit="10"/>
<path d="M81.3699 50.1478C81.5305 50.0381 81.6813 49.95 81.8184 49.8814C81.9555 49.8129 82.0887 49.7796 82.2161 49.7796C82.4687 49.7796 82.6587 49.8932 82.786 50.1165C82.9134 50.3417 82.976 50.6179 82.976 50.945C82.976 51.2995 82.8996 51.6599 82.7429 52.0282C82.5882 52.3964 82.3551 52.702 82.0437 52.9488C80.8117 54.0398 79.7128 55.0348 78.7472 55.9338C77.7796 56.8329 76.8688 57.6066 76.0109 58.2549C75.1529 58.9032 74.3166 59.4027 73.4998 59.7572C72.683 60.1118 71.8075 60.2881 70.8751 60.2881C69.9996 60.2881 69.3238 60.0961 68.8459 59.7161C68.368 59.3342 68.129 58.8092 68.129 58.1413V57.9885C68.129 57.9415 68.1349 57.8828 68.1466 57.8142C68.1917 57.4048 68.3719 56.9347 68.6814 56.4039C68.9928 55.8731 69.3669 55.3208 69.8037 54.7469C70.2405 54.173 70.7067 53.5951 71.2022 53.0095C71.6978 52.4238 72.1542 51.8676 72.5753 51.3426C72.9944 50.8177 73.3431 50.3378 73.6193 49.901C73.8955 49.4642 74.0345 49.1116 74.0345 48.8374C74.0345 48.6729 73.9758 48.5436 73.8622 48.4496C73.7466 48.3536 73.5566 48.3066 73.2922 48.3066C72.8319 48.3066 72.3579 48.4261 71.8682 48.6651C71.3785 48.904 70.8947 49.2233 70.4187 49.6248C69.9408 50.0264 69.4746 50.4867 69.0202 51.0057C68.5658 51.5248 68.1408 52.0615 67.7431 52.6217C67.3455 53.1818 66.9832 53.742 66.6561 54.3081C66.329 54.8742 66.0489 55.3952 65.8197 55.8731C65.7511 56.0239 65.6532 56.2355 65.5259 56.5077C65.3986 56.78 65.2615 57.0875 65.1126 57.4283C64.9618 57.7691 64.8051 58.1198 64.6366 58.4802C64.4701 58.8425 64.3174 59.1833 64.1803 59.5026C64.0412 59.8238 63.9178 60.1079 63.8081 60.3625C63.6984 60.6152 63.6201 60.7875 63.575 60.8835C63.5162 61.0069 63.4222 61.238 63.289 61.5788C63.1558 61.9197 63.005 62.3173 62.8307 62.7756C62.6583 63.232 62.4762 63.7119 62.2881 64.2172C62.0981 64.7226 61.9199 65.1985 61.7534 65.649C61.5869 66.0995 61.44 66.4932 61.3127 66.8341C61.1854 67.1749 61.1051 67.406 61.0698 67.5294C60.9543 67.8839 60.8191 68.2169 60.6644 68.5323C60.5096 68.8457 60.3314 69.1218 60.1296 69.3608C59.9279 69.5998 59.6987 69.7898 59.4382 69.9327C59.1797 70.0757 58.8878 70.1462 58.5666 70.1462C58.1513 70.1462 57.8105 70.0463 57.5383 69.8505C57.268 69.6526 57.1328 69.2746 57.1328 68.7164C57.1328 68.4441 57.1681 68.164 57.2366 67.8781C57.3052 67.5921 57.3933 67.3081 57.4952 67.0299C57.599 66.7498 57.7048 66.4776 57.8144 66.2132C57.9241 65.9468 58.024 65.6921 58.1161 65.4453C58.737 64.0821 59.3716 62.7149 60.016 61.3458C60.6604 59.9747 61.2794 58.6192 61.8709 57.2756C62.4644 55.9338 63.0129 54.6137 63.5202 53.319C64.0255 52.0243 64.4466 50.7824 64.7796 49.5974C64.8717 49.3526 64.999 49.0039 65.1596 48.5534C65.3202 48.1029 65.5043 47.6602 65.712 47.2235C65.9196 46.7867 66.1527 46.4086 66.4112 46.0894C66.6698 45.7681 66.9499 45.6095 67.2476 45.6095C67.7079 45.6095 68.0409 45.7152 68.2485 45.9268C68.4561 46.1383 68.5599 46.4478 68.5599 46.8572C68.5599 46.9394 68.5482 47.0687 68.5247 47.245C68.5012 47.4213 68.4718 47.6093 68.4385 47.8071C68.4032 48.005 68.366 48.193 68.3268 48.3693C68.2857 48.5456 68.2485 48.6749 68.2152 48.7571C68.6402 48.2929 69.1005 47.8346 69.5961 47.3762C70.0916 46.9199 70.6029 46.5066 71.1337 46.1383C71.6625 45.7701 72.2031 45.4704 72.7555 45.2373C73.3078 45.0062 73.8602 44.8906 74.4126 44.8906C74.7925 44.8906 75.1686 44.9455 75.5427 45.0552C75.9168 45.1648 76.2498 45.3235 76.5436 45.535C76.8374 45.7466 77.0764 46.013 77.2605 46.3322C77.4446 46.6535 77.5367 47.0237 77.5367 47.4467C77.5367 48.0069 77.3957 48.6024 77.1136 49.237C76.8316 49.8716 76.477 50.5082 76.052 51.1487C75.625 51.7892 75.1647 52.414 74.6711 53.0193C74.1755 53.6265 73.7133 54.1788 73.2804 54.6763C72.8495 55.1739 72.4871 55.5969 72.1933 55.9436C71.8995 56.2923 71.7467 56.5273 71.735 56.6488C71.735 56.8133 71.7879 56.9445 71.8897 57.0483C71.9916 57.1522 72.1659 57.2011 72.4088 57.2011C72.6047 57.2011 72.8926 57.0914 73.2726 56.874C73.6526 56.6566 74.1853 56.2786 74.8689 55.7399C75.5525 55.2013 76.4222 54.4785 77.476 53.5716C78.5298 52.6667 79.8284 51.5248 81.3699 50.1478Z" fill="white" stroke="white" stroke-width="0.264085" stroke-miterlimit="10"/>
</svg>
