<svg width="100" height="99" viewBox="0 0 100 99" fill="none" xmlns="http://www.w3.org/2000/svg">
<path d="M0 0.0322266H100V98.3655H0V0.0322266Z" fill="url(#paint0_linear_339731_1140)"/>
<path d="M7.95312 7.85254H92.0477V90.5466H7.95312V7.85254Z" fill="url(#paint1_linear_339731_1140)"/>
<path d="M24.1663 27.7474C24.1663 27.7474 30.489 27.5811 35.6937 27.5811C40.953 27.5811 44.703 28.8184 47.2207 30.9927C49.627 33.0474 51.2497 36.5501 51.2497 40.5374C51.2497 44.5247 50.0184 47.7874 47.7797 50.0814C44.87 53.0417 41.4794 54.7941 35.6937 55.0364C34.0954 55.1034 32.616 55.1194 32.616 55.1194V68.0807H24.166L24.1663 27.7474ZM32.6157 47.9384C33.5337 48.0277 34.109 47.9847 35.4697 47.9684C40.0023 47.9141 42.7994 45.1577 42.7994 40.9894C42.7994 37.2447 40.493 34.1701 36.1417 34.0107C34.4074 33.9474 32.6157 34.0107 32.6157 34.0107V47.9384Z" fill="url(#paint2_linear_339731_1140)"/>
<path d="M54.4747 59.0516C56.1777 60.0966 60.1963 61.6616 62.9357 61.6616C65.7343 61.6616 66.89 60.6752 66.89 59.1376C66.89 57.5979 65.9773 55.9806 62.5083 54.8112C56.362 52.7182 53.9883 50.2129 54.05 46.7062C54.05 41.0426 58.796 36.7959 66.1593 36.7959C69.628 36.7959 72.399 37.9299 74.223 38.8526V45.6499C72.883 44.9106 69.0193 43.2599 66.464 43.2599C64.211 43.2599 62.934 44.1832 62.934 45.7206C62.934 47.1366 64.091 47.8752 67.742 49.1686C73.4003 51.1379 75.774 54.0299 75.834 58.4616C75.834 64.0632 71.516 68.5176 62.934 68.2472C59.9887 68.1546 56.7257 66.9902 54.474 65.7609L54.4747 59.0516Z" fill="url(#paint3_linear_339731_1140)"/>
<defs>
<linearGradient id="paint0_linear_339731_1140" x1="24.3017" y1="-5.1031" x2="62.635" y2="75.8972" gradientUnits="userSpaceOnUse">
<stop stop-color="#A0CBFF"/>
<stop offset="0.394" stop-color="#A0CBFE"/>
<stop offset="0.583" stop-color="#8EC2FC"/>
<stop offset="0.784" stop-color="#83BCFB"/>
<stop offset="1" stop-color="#7FBAFB"/>
</linearGradient>
<linearGradient id="paint1_linear_339731_1140" x1="37.9084" y1="9.01787" x2="59.5751" y2="81.0185" gradientUnits="userSpaceOnUse">
<stop stop-color="#090058"/>
<stop offset="1" stop-color="#070033"/>
</linearGradient>
<linearGradient id="paint2_linear_339731_1140" x1="12.3793" y1="-0.792615" x2="50.7124" y2="80.2067" gradientUnits="userSpaceOnUse">
<stop stop-color="#A0CBFF"/>
<stop offset="0.394" stop-color="#A0CBFE"/>
<stop offset="0.583" stop-color="#8EC2FC"/>
<stop offset="0.784" stop-color="#83BCFB"/>
<stop offset="1" stop-color="#7FBAFB"/>
</linearGradient>
<linearGradient id="paint3_linear_339731_1140" x1="34.2143" y1="-11.3684" x2="72.6993" y2="69.9519" gradientUnits="userSpaceOnUse">
<stop stop-color="#A0CBFF"/>
<stop offset="0.394" stop-color="#A0CBFE"/>
<stop offset="0.583" stop-color="#8EC2FC"/>
<stop offset="0.784" stop-color="#83BCFB"/>
<stop offset="1" stop-color="#7FBAFB"/>
</linearGradient>
</defs>
</svg>
