<svg width="101" height="101" viewBox="0 0 101 101" fill="none" xmlns="http://www.w3.org/2000/svg">
<path d="M7.10743 50.1982C7.10743 67.177 16.9741 81.8485 31.2817 88.8023L10.821 32.7419C8.36825 38.2344 7.10279 44.1829 7.10743 50.1982ZM78.9568 48.0337C78.9568 42.7326 77.0526 39.0615 75.4195 36.2041C73.2452 32.6709 71.208 29.6788 71.208 26.1455C71.208 22.2026 74.1977 18.5323 78.4099 18.5323C78.6001 18.5323 78.7805 18.556 78.9666 18.5666C71.3345 11.5752 61.1675 7.30664 50.0006 7.30664C35.0157 7.30664 21.832 14.995 14.1624 26.6402C15.1688 26.6703 16.118 26.6908 16.9227 26.6908C21.4092 26.6908 28.3541 26.1464 28.3541 26.1464C30.6663 26.0101 30.9389 29.4062 28.6299 29.6796C28.6299 29.6796 26.3055 29.953 23.7198 30.0885L39.3397 76.5491L48.7274 48.3969L42.0437 30.0877C39.734 29.9522 37.5458 29.6788 37.5458 29.6788C35.2344 29.5433 35.5054 26.0092 37.8168 26.1455C37.8168 26.1455 44.9003 26.6899 49.115 26.6899C53.6007 26.6899 60.5464 26.1455 60.5464 26.1455C62.8602 26.0092 63.132 29.4053 60.8214 29.6788C60.8214 29.6788 58.4929 29.9522 55.9121 30.0877L71.4129 76.1965L75.6905 61.8996C77.5456 55.9669 78.9568 51.7056 78.9568 48.0337Z" fill="#00749A"/>
<path d="M50.7522 53.9501L37.8828 91.3455C41.8173 92.505 45.8979 93.0937 49.9997 93.0937C54.9947 93.0937 59.7848 92.2294 64.2436 90.6623C64.124 90.4751 64.0218 90.2773 63.9384 90.0714L50.7522 53.9501ZM87.6368 29.6191C87.8212 30.9854 87.9257 32.4529 87.9257 34.0297C87.9257 38.3824 87.1128 43.2753 84.6643 49.3934L71.5622 87.2744C84.3141 79.8382 92.8913 66.0229 92.8913 50.1981C92.9028 43.0052 91.0952 35.9261 87.6368 29.6191Z" fill="#00749A"/>
<path d="M50.0005 0.199219C22.4309 0.199219 0 22.6285 0 50.198C0 77.7707 22.4301 100.2 50.0005 100.2C77.5692 100.2 100.003 77.7716 100.003 50.198C100.003 22.6285 77.5692 0.199219 50.0005 0.199219ZM50.0005 97.9074C23.6952 97.9074 2.29263 76.5049 2.29263 50.198C2.29263 23.8935 23.6944 2.49266 50.0005 2.49266C76.305 2.49266 97.7059 23.8935 97.7059 50.198C97.7059 76.5049 76.3041 97.9074 50.0005 97.9074Z" fill="#00749A"/>
</svg>
