<svg width="100" height="62" viewBox="0 0 100 62" fill="none" xmlns="http://www.w3.org/2000/svg">
<path d="M83.679 19.6396C83.5229 16.2054 83.9911 13.1615 82.4302 10.5859C78.6838 4.18582 69.3179 0.439453 50.5861 0.439453V0.985799H50.1958H50.5861V0.439453C31.8543 0.439453 22.0201 4.18582 18.2737 10.6639C16.7908 13.3176 16.9469 16.2835 16.7127 19.7176C16.5566 22.4494 15.3079 25.3372 15.8542 28.4592C16.4786 32.5177 16.7127 36.5763 17.3371 40.3227C17.8054 43.3666 22.0201 45.9422 22.4103 48.83C23.503 56.7911 31.7762 60.4594 50.508 60.4594V61.0838H50.0397H50.5861V60.4594C69.3179 60.4594 77.2789 56.7911 78.2936 48.83C78.6838 45.8642 82.5863 43.3666 83.0546 40.3227C83.6789 36.5763 83.9131 32.5177 84.5375 28.4592C85.0838 25.3372 83.8351 22.3713 83.679 19.6396Z" fill="#EFCCA3"/>
<path d="M50.2733 22.4492C53.6294 22.5273 55.9709 24.6346 58.1563 26.5858C60.7319 28.8493 65.1027 30.4102 66.8978 32.3615C68.6929 34.3127 71.0344 36.2639 71.8929 39.3079C72.7515 42.3518 72.9856 46.2543 72.9856 47.2689C72.9856 48.2835 73.532 48.0494 75.093 47.2689C78.7613 45.4738 82.8198 40.6347 82.8198 40.6347C82.3516 43.6786 78.371 46.4104 77.9808 49.2982C77.0442 57.2592 69.3173 61.0836 50.1952 61.0836H50.1172H50.5855" fill="#CCAC8D"/>
<path d="M62.6058 16.3614C63.3083 18.7809 65.8058 26.9761 60.9668 24.2444C60.9668 24.2444 62.9961 25.4151 64.2449 29.8639C65.5717 34.3127 68.7717 34.8591 68.7717 34.8591C68.7717 34.8591 74.001 35.8737 77.9035 32.5176C81.1815 29.7078 81.7279 24.7127 80.323 20.8883C78.9181 17.1419 76.4205 15.9711 72.7522 15.1907C69.0839 14.3321 61.7473 13.6297 62.6058 16.3614Z" fill="#CCAC8D"/>
<path d="M71.8918 32.1273C75.685 32.1273 78.7601 29.0523 78.7601 25.259C78.7601 21.4657 75.685 18.3906 71.8918 18.3906C68.0985 18.3906 65.0234 21.4657 65.0234 25.259C65.0234 29.0523 68.0985 32.1273 71.8918 32.1273Z" fill="black"/>
<path d="M70.0979 24.0102C71.0894 24.0102 71.8931 23.2065 71.8931 22.215C71.8931 21.2236 71.0894 20.4199 70.0979 20.4199C69.1065 20.4199 68.3027 21.2236 68.3027 22.215C68.3027 23.2065 69.1065 24.0102 70.0979 24.0102Z" fill="white"/>
<path d="M61.4336 24.9473C61.4336 24.9473 67.5995 29.1619 70.9556 33.2985C74.3117 37.4351 74.2336 38.2156 74.2336 38.2156L71.8141 39.3083C71.8141 39.3083 68.3799 32.8302 64.1653 30.4107C59.8726 27.9912 59.4043 25.9619 59.4043 25.9619L61.4336 24.9473Z" fill="#EFCCA3"/>
<path d="M50.507 22.4492C47.1509 22.5273 44.6533 24.6346 42.3898 26.5858C39.8142 28.8493 35.2874 30.4102 33.4922 32.3615C31.6971 34.3127 29.2776 36.2639 28.419 39.3079C27.5605 42.3518 27.2483 46.2543 27.2483 47.2689C27.2483 48.2835 27.4044 48.3616 25.1409 47.2689C21.4726 45.5518 17.4141 40.6347 17.4141 40.6347C17.8824 43.6786 21.8629 46.4104 22.2531 49.2982C23.3458 57.2592 31.0727 61.0836 50.1948 61.0836H50.585" fill="#CCAC8D"/>
<path d="M68.6138 35.6398C64.8674 31.0349 58.8576 26.7422 50.5063 26.7422H50.4283C42.077 26.7422 36.0672 31.0349 32.3208 35.6398C28.4183 40.4008 28.7305 42.274 28.7305 46.8008C28.7305 63.1911 34.5062 58.5082 38.3306 60.5375C42.2331 62.4887 46.2917 61.8643 50.4283 61.8643H50.5063C54.721 61.8643 58.7015 62.4107 62.604 60.4594C66.4284 58.5082 72.2041 63.3472 72.2041 46.9569C72.2821 42.4301 72.5163 40.4008 68.6138 35.6398Z" fill="#56332B"/>
<path d="M50.1176 30.8008C50.1176 30.8008 49.5712 38.3717 48.4785 39.8546L50.5078 39.3863L50.1176 30.8008Z" fill="#442823"/>
<path d="M50.6637 30.8008C50.6637 30.8008 51.21 38.3717 52.3027 39.8546L50.2734 39.3863L50.6637 30.8008Z" fill="#442823"/>
<path d="M44.1064 29.0051C43.3259 27.21 46.1357 24.3222 50.5845 24.2441C55.0334 24.2441 57.8432 27.132 57.0627 29.0051C56.2822 30.8783 53.4724 31.4247 50.5845 31.5027C47.7748 31.4247 44.8869 30.8783 44.1064 29.0051Z" fill="#56332B"/>
<path d="M50.5852 30.8008C50.5852 30.4886 53.2388 30.4105 54.6437 29.4739C54.6437 29.4739 51.7559 30.4105 51.1315 30.0203C50.5071 29.7081 50.351 28.7715 50.351 28.7715C50.351 28.7715 50.1169 29.7081 49.6486 30.0203C49.1023 30.3325 45.8242 29.4739 45.8242 29.4739C45.8242 29.4739 50.1949 30.5666 50.1949 30.8008C50.1949 31.0349 50.1169 31.8154 50.1169 32.3618C50.1169 34.313 50.1169 39.152 50.4291 39.5423C50.8974 40.2447 50.7413 34.313 50.7413 32.3618C50.6632 31.7374 50.6632 31.113 50.5852 30.8008Z" fill="black"/>
<path d="M50.7417 41.2593C52.0686 41.2593 54.41 42.1959 56.5174 43.6788C54.4881 41.4154 52.0686 39.8545 50.7417 39.8545C49.3368 39.8545 46.371 41.5715 44.2637 44.069C46.449 42.352 49.2588 41.2593 50.7417 41.2593Z" fill="#7F4A41"/>
<path d="M50.194 55.0743C47.2282 55.0743 44.3403 54.1377 41.6867 53.4352C41.1403 53.2791 40.594 53.6694 40.0476 53.5133C35.1305 51.9523 31.15 49.2986 28.7305 45.9425V46.723C28.7305 63.1134 34.5061 58.5085 38.3305 60.4597C42.233 62.4109 46.2916 61.7865 50.4282 61.7865H50.5062C54.7209 61.7865 58.7014 62.3329 62.6039 60.3817C66.4283 58.4304 72.2039 63.1914 72.2039 46.801C72.2039 46.1766 72.2039 45.5522 72.282 45.0059C70.0185 48.6742 65.8819 51.562 60.7307 53.2791C60.2624 53.4352 59.1697 53.045 58.7014 53.123C55.8916 54.0596 53.394 55.0743 50.194 55.0743Z" fill="#442823"/>
<path d="M42.7809 46.2539C42.7809 46.2539 40.8296 52.1076 42.1565 54.6833L40.3613 53.9028C40.3613 53.9028 41.6882 47.971 42.7809 46.2539ZM58.2346 46.2539C58.2346 46.2539 60.1859 52.1076 58.859 54.6833L60.6541 53.9028C60.6541 53.9028 59.2493 47.971 58.2346 46.2539Z" fill="#442823"/>
<path d="M37.7847 16.3614C37.0822 18.7809 34.5846 26.9761 39.4237 24.2444C39.4237 24.2444 37.3944 25.4151 36.1456 29.8639C34.8968 34.3127 31.6188 34.8591 31.6188 34.8591C31.6188 34.8591 26.3895 35.8737 22.487 32.5176C19.2089 29.7078 18.6626 24.7127 20.0675 20.8883C21.4724 17.0638 23.9699 15.9711 27.6382 15.1907C31.3066 14.3321 38.5652 13.6297 37.7847 16.3614Z" fill="#CCAC8D"/>
<path d="M50.5071 39.8539C52.6145 39.8539 59.1706 44.3807 59.2486 49.9222V49.61C59.2486 43.8344 53.9413 39.2295 50.5071 39.2295C47.073 39.2295 41.7656 43.9124 41.7656 49.61V49.9222C41.8437 44.3807 48.3998 39.8539 50.5071 39.8539Z" fill="black"/>
<path d="M52.211 29.0478C52.5449 28.9617 52.6846 28.3843 52.5231 27.7582C52.3616 27.1321 51.96 26.6944 51.6261 26.7806C51.2922 26.8667 51.1524 27.4441 51.3139 28.0702C51.4754 28.6962 51.8771 29.1339 52.211 29.0478Z" fill="#331712"/>
<path d="M48.1995 29.0365C48.5288 29.1387 48.9511 28.7209 49.1427 28.1034C49.3343 27.4858 49.2226 26.9024 48.8932 26.8002C48.5639 26.6981 48.1416 27.1158 47.95 27.7334C47.7584 28.3509 47.8701 28.9344 48.1995 29.0365Z" fill="#331712"/>
<path d="M28.8879 32.1273C32.6811 32.1273 35.7562 29.0523 35.7562 25.259C35.7562 21.4657 32.6811 18.3906 28.8879 18.3906C25.0946 18.3906 22.0195 21.4657 22.0195 25.259C22.0195 29.0523 25.0946 32.1273 28.8879 32.1273Z" fill="black"/>
<path d="M30.6818 24.0102C31.6733 24.0102 32.477 23.2065 32.477 22.215C32.477 21.2236 31.6733 20.4199 30.6818 20.4199C29.6904 20.4199 28.8867 21.2236 28.8867 22.215C28.8867 23.2065 29.6904 24.0102 30.6818 24.0102Z" fill="white"/>
<path d="M52.5366 25.337C52.5366 25.259 50.7415 26.1175 50.2732 26.1956C49.8049 26.1175 48.0098 25.259 48.0098 25.337H52.5366Z" fill="#7F4A41"/>
<path d="M38.8783 24.9473C38.8783 24.9473 32.7125 29.1619 29.3563 33.2985C26.0002 37.4351 26.0783 38.2156 26.0783 38.2156L28.4978 39.3083C28.4978 39.3083 31.932 32.8302 36.1466 30.4107C40.3613 27.9912 40.9076 25.9619 40.9076 25.9619L38.8783 24.9473Z" fill="#EFCCA3"/>
<path d="M25.3762 12.4593C25.3762 12.4593 23.2689 18.2349 18.5859 20.6544C18.5859 20.6544 25.9226 19.7959 25.3762 12.4593ZM74.6253 12.4593C74.6253 12.4593 76.7327 18.2349 81.4156 20.6544C81.4156 20.6544 74.079 19.7959 74.6253 12.4593ZM61.2789 23.2301C61.2789 23.2301 56.674 18.391 50.5081 18.2349H50.5862H50.6642C44.4203 18.391 39.8934 23.2301 39.8934 23.2301C45.2788 19.4837 49.8837 19.5618 50.6642 19.5618C50.5862 19.5618 55.8935 19.4837 61.2789 23.2301ZM55.8935 13.0837C55.8935 13.0837 53.552 9.80559 50.4301 9.72754H50.5862C48.2447 9.80559 45.2007 13.0837 45.2007 13.0837C47.8544 10.508 50.5862 10.5861 50.5862 10.5861C50.5862 10.5861 53.1618 10.508 55.8935 13.0837ZM28.8884 37.0448C28.8884 37.0448 25.2201 38.8399 22.5665 37.7472H22.4884C20.1469 36.4204 18.9762 32.4399 18.9762 32.4399C18.9762 32.4399 21.3177 39.4643 28.8884 37.0448ZM71.6595 37.0448C71.6595 37.0448 75.3278 38.8399 77.9815 37.7472C81.1034 36.4204 81.5717 32.4399 81.5717 32.4399C81.5717 32.4399 79.2302 39.4643 71.6595 37.0448Z" fill="#CCAC8D"/>
<path d="M33.1021 12.0688C35.1314 11.6786 38.4875 11.6005 41.1412 12.4591C44.4973 13.6298 41.7656 17.9225 42.468 18.1567C43.1705 18.3908 44.107 15.1908 50.351 15.503C56.673 15.8152 57.3754 18.625 58.234 18.1567C59.0925 17.6884 57.3754 10.3517 66.8194 12.0688C66.8194 12.0688 56.9071 9.41514 57.3754 16.5957C57.3754 16.5957 51.6778 12.2249 43.7168 16.1274C43.7949 16.1274 45.8241 9.41514 33.1021 12.0688ZM67.6779 12.0688C67.834 12.0688 67.9121 12.1469 67.9901 12.1469C68.0682 12.1469 67.9121 12.0688 67.6779 12.0688ZM30.3704 2.46875C30.3704 2.46875 21.941 13.0835 20.6923 17.142C19.4435 21.2786 18.5069 38.2153 17.4142 40.6349L13.5117 23.9323L20.6923 6.52731L30.3704 2.46875ZM70.0194 2.46875C70.0194 2.46875 78.4487 13.0835 79.6975 17.142C80.9463 21.2786 81.8829 38.2153 82.9756 40.6349L86.8781 23.9323L79.6975 6.52731L70.0194 2.46875Z" fill="#CCAC8D"/>
<path d="M69.6287 2.46895C69.6287 2.46895 78.6825 10.0397 81.3362 18.7812C83.9899 27.5228 82.8972 38.1375 84.9265 39.4643C87.8143 41.3375 91.0924 30.1764 92.1851 29.0057C93.9022 27.1325 99.5998 22.3715 99.9901 21.513C100.38 20.6544 88.4387 7.6202 83.2094 5.04458C76.8874 2.0787 69.0824 1.84455 69.6287 2.46895Z" fill="#56332B"/>
<path d="M77.3555 7.15137C77.3555 7.15137 88.0482 20.81 87.8921 37.8247L92.1848 29.0832C92.1068 29.0832 88.3604 17.9221 77.3555 7.15137Z" fill="#442823"/>
<path d="M30.3705 2.46895C30.3705 2.46895 21.3168 10.0397 18.6631 18.7812C16.0094 27.5228 17.1021 38.1375 15.0729 39.4643C12.185 41.3375 8.90696 30.1764 7.81427 29.0057C6.09719 27.1325 0.399586 22.3715 0.00933904 21.513C-0.380908 20.6544 11.5606 7.6202 16.7899 5.04458C23.1119 2.0787 30.9169 1.84455 30.3705 2.46895Z" fill="#56332B"/>
<path d="M22.6439 7.15137C22.6439 7.15137 11.9511 20.81 12.1072 37.8247L7.89258 29.0832C7.89258 29.0832 11.639 17.9221 22.6439 7.15137Z" fill="#442823"/>
<path d="M16.8672 38.1368C16.8672 38.1368 17.6477 42.3515 18.8965 43.6783C20.1453 45.0051 19.2867 42.6637 19.2867 42.6637C19.2867 42.6637 17.9599 41.9612 18.194 36.5758C18.4282 31.1904 16.8672 38.1368 16.8672 38.1368ZM83.4432 38.1368C83.4432 38.1368 82.6628 42.3515 81.414 43.6783C80.1652 45.0051 81.0237 42.6637 81.0237 42.6637C81.0237 42.6637 82.3506 41.9612 82.1164 36.5758C81.8823 31.1904 83.4432 38.1368 83.4432 38.1368Z" fill="#CCAC8D"/>
<path d="M42.39 35.5614C42.7348 35.5614 43.0144 35.2818 43.0144 34.937C43.0144 34.5921 42.7348 34.3125 42.39 34.3125C42.0452 34.3125 41.7656 34.5921 41.7656 34.937C41.7656 35.2818 42.0452 35.5614 42.39 35.5614Z" fill="#442823"/>
<path d="M38.8002 39.3074C39.1451 39.3074 39.4246 39.0278 39.4246 38.683C39.4246 38.3381 39.1451 38.0586 38.8002 38.0586C38.4553 38.0586 38.1758 38.3381 38.1758 38.683C38.1758 39.0278 38.4553 39.3074 38.8002 39.3074Z" fill="#442823"/>
<path d="M37.6283 35.5614C37.9732 35.5614 38.2527 35.2818 38.2527 34.937C38.2527 34.5921 37.9732 34.3125 37.6283 34.3125C37.2835 34.3125 37.0039 34.5921 37.0039 34.937C37.0039 35.2818 37.2835 35.5614 37.6283 35.5614Z" fill="#442823"/>
<path d="M57.6088 35.5614C57.9537 35.5614 58.2333 35.2818 58.2333 34.937C58.2333 34.5921 57.9537 34.3125 57.6088 34.3125C57.264 34.3125 56.9844 34.5921 56.9844 34.937C56.9844 35.2818 57.264 35.5614 57.6088 35.5614Z" fill="#442823"/>
<path d="M61.1986 39.3074C61.5434 39.3074 61.823 39.0278 61.823 38.683C61.823 38.3381 61.5434 38.0586 61.1986 38.0586C60.8538 38.0586 60.5742 38.3381 60.5742 38.683C60.5742 39.0278 60.8538 39.3074 61.1986 39.3074Z" fill="#442823"/>
<path d="M62.3705 35.5614C62.7153 35.5614 62.9948 35.2818 62.9948 34.937C62.9948 34.5921 62.7153 34.3125 62.3705 34.3125C62.0256 34.3125 61.7461 34.5921 61.7461 34.937C61.7461 35.2818 62.0256 35.5614 62.3705 35.5614Z" fill="#442823"/>
</svg>
