<svg width="90" height="100" viewBox="0 0 90 100" fill="none" xmlns="http://www.w3.org/2000/svg">
<path d="M89.0455 29.8019C89.0448 28.137 88.6888 26.6658 87.9687 25.4036C87.2614 24.1616 86.2021 23.121 84.7812 22.2982C73.0529 15.5355 61.3131 8.79353 49.5885 2.02398C46.4276 0.199138 43.3629 0.26601 40.2255 2.11705C35.5572 4.86982 12.1849 18.2604 5.22027 22.2944C2.35203 23.9551 0.956342 26.4963 0.955653 29.7988C0.951172 43.3989 0.955653 56.9991 0.951172 70.5992C0.951172 72.2275 1.29277 73.6704 1.98113 74.9138C2.6888 76.1929 3.76288 77.2622 5.21648 78.1036C12.1815 82.1376 35.5569 95.5271 40.2241 98.2809C43.3629 100.133 46.4276 100.199 49.5896 98.374C61.3145 91.6041 73.0549 84.8621 84.785 78.0995C86.2386 77.2584 87.3127 76.1885 88.0204 74.9103C88.7077 73.6666 89.05 72.2241 89.05 70.5954C89.05 70.5954 89.05 43.4024 89.0455 29.8019Z" fill="#A179DC"/>
<path d="M45.1347 50.0664L1.98047 74.9137C2.68814 76.1929 3.76222 77.2621 5.21581 78.1035C12.1808 82.1376 35.5562 95.5271 40.2234 98.2809C43.3623 100.133 46.427 100.199 49.5889 98.3739C61.3138 91.604 73.0543 84.8621 84.7844 78.0994C86.238 77.2583 87.312 76.1884 88.0197 74.9103L45.1347 50.0664Z" fill="#280068"/>
<path d="M89.045 29.8017C89.0443 28.1368 88.6882 26.6656 87.9681 25.4033L45.1348 50.0666L88.0198 74.9102C88.7072 73.6665 89.0488 72.2239 89.0494 70.5952C89.0494 70.5952 89.0494 43.4022 89.045 29.8017Z" fill="#390091"/>
<path d="M70.5445 40.7773V45.4218H75.189V40.7773H77.5112V45.4218H82.1557V47.7441H77.5112V52.3882H82.1557V54.7104H77.5112V59.3549H75.189V54.7104H70.5445V59.3549H68.2223V54.7104H63.5781V52.3882H68.2223V47.7441H63.5781V45.4218H68.2223V40.7773H70.5445ZM75.189 47.7437H70.5445V52.3882H75.189V47.7437Z" fill="white"/>
<path d="M45.2311 17.4525C57.3452 17.4525 67.9216 24.0314 73.5867 33.8106L73.5316 33.7164L59.2783 41.9231C56.4704 37.1686 51.3226 33.9598 45.4169 33.8936L45.2308 33.8926C36.2255 33.8926 28.9248 41.1933 28.9248 50.1986C28.9218 53.037 29.6634 55.8265 31.0754 58.2887C33.886 63.1955 39.1699 66.505 45.2311 66.505C51.3299 66.505 56.6437 63.1534 59.4399 58.1943L59.372 58.3132L73.6036 66.5577C68.0005 76.2541 57.5689 82.8127 45.5958 82.9433L45.2311 82.9454C33.0788 82.9454 22.4724 76.3258 16.8214 66.495C14.0628 61.6957 12.4844 56.1319 12.4844 50.1986C12.4844 32.1136 27.1451 17.4521 45.2308 17.4521L45.2311 17.4525Z" fill="white"/>
</svg>
