<svg width="100" height="101" viewBox="0 0 100 101" fill="none" xmlns="http://www.w3.org/2000/svg">
<path d="M100 0.199219H0V100.199H100V0.199219Z" fill="#F7DF1E"/>
<path d="M67.1745 78.3242C69.1888 81.613 71.8094 84.0305 76.4444 84.0305C80.338 84.0305 82.8253 82.0845 82.8253 79.3956C82.8253 76.1734 80.2698 75.0321 75.9841 73.1575L73.6348 72.1496C66.8539 69.2607 62.3491 65.6416 62.3491 57.9908C62.3491 50.9432 67.719 45.5781 76.111 45.5781C82.0856 45.5781 86.3809 47.6575 89.4761 53.1019L82.1586 57.8003C80.5475 54.9115 78.8094 53.7734 76.111 53.7734C73.3587 53.7734 71.6142 55.5194 71.6142 57.8003C71.6142 60.6194 73.3602 61.7607 77.392 63.5067L79.7412 64.513C87.7253 67.9369 92.2333 71.4273 92.2333 79.2749C92.2333 87.7353 85.5872 92.3702 76.6618 92.3702C67.9348 92.3702 62.2967 88.2115 59.538 82.7607L67.1745 78.3242ZM33.9793 79.1384C35.4555 81.7575 36.7983 83.9718 40.0269 83.9718C43.1142 83.9718 45.0618 82.7638 45.0618 78.067V46.1146H54.4586V78.194C54.4586 87.9242 48.7539 92.3527 40.4269 92.3527C32.9031 92.3527 28.546 88.4591 26.3301 83.7694L33.9793 79.1384Z" fill="black"/>
</svg>
