<svg width="100" height="100" viewBox="0 0 100 100" fill="none" xmlns="http://www.w3.org/2000/svg">
<path d="M0.951416 35.2325C0.951416 35.2325 -1.48421 33.4768 1.43854 31.1325L8.24814 25.0434C8.24814 25.0434 10.1966 22.9935 12.2568 24.7796L75.0959 72.3555V95.1692C75.0959 95.1692 75.0655 98.7516 70.4682 98.3558L0.951416 35.2325Z" fill="#2489CA"/>
<path d="M17.1476 49.9385L0.950647 64.6639C0.950647 64.6639 -0.713699 65.902 0.950647 68.1143L8.47065 74.9544C8.47065 74.9544 10.2568 76.8724 12.8954 74.6905L30.0666 61.6701L17.1476 49.9385Z" fill="#1070B3"/>
<path d="M45.5834 50.0594L75.2879 27.3776L75.0951 4.68562C75.0951 4.68562 73.8266 -0.266828 69.5946 2.31088L30.0664 38.2872L45.5834 50.0594Z" fill="#0877B9"/>
<path d="M70.4685 98.3867C72.1937 100.153 74.2843 99.5741 74.2843 99.5741L97.4329 88.1672C100.396 86.1477 99.9801 83.641 99.9801 83.641V15.5246C99.9801 12.5308 96.9153 11.4956 96.9153 11.4956L76.8518 1.82416C72.4677 -0.88548 69.5957 2.31128 69.5957 2.31128C69.5957 2.31128 73.2897 -0.347611 75.0962 4.68602V94.7536C75.0962 95.3726 74.9642 95.9816 74.7004 96.5296C74.1726 97.5952 73.0259 98.5897 70.2756 98.1736L70.4685 98.3867Z" fill="#3C99D4"/>
</svg>
