<svg width="100" height="73" viewBox="0 0 100 73" fill="none" xmlns="http://www.w3.org/2000/svg">
<path d="M99.0138 27.4088C98.7425 27.1934 96.2107 25.2817 90.8713 25.2817C89.4615 25.2878 88.0546 25.4087 86.6643 25.6433C85.6309 18.5602 79.7748 15.1067 79.5123 14.9518L78.0785 14.125L77.1355 15.4857C75.9546 17.3136 75.0925 19.3286 74.5865 21.4451C73.6305 25.4884 74.2118 29.2861 76.2657 32.5328C73.7855 33.9149 69.8069 34.2551 69.0018 34.2852H3.13026C1.40972 34.2876 0.0135775 35.678 0.00420084 37.3984C-0.0726317 43.1691 0.905059 48.9054 2.88913 54.3248C5.15828 60.2756 8.53415 64.659 12.9262 67.3415C17.8478 70.3556 25.8439 72.078 34.9077 72.078C39.0024 72.0909 43.0893 71.7203 47.115 70.9714C52.711 69.9439 58.0959 67.988 63.0468 65.1842C67.1262 62.8219 70.7976 59.8166 73.9192 56.2839C79.1379 50.3762 82.2469 43.7968 84.559 37.9495H85.4805C91.1944 37.9495 94.7081 35.663 96.6457 33.747C97.9334 32.5249 98.9386 31.0363 99.5909 29.3851L100 28.1882L99.0138 27.4088Z" fill="#2496ED"/>
<path d="M9.23555 32.3557H18.0626C18.4883 32.3557 18.8333 32.0106 18.8333 31.585V23.7223C18.8357 23.2966 18.4925 22.9496 18.067 22.9473C18.0656 22.9473 18.064 22.9473 18.0626 22.9473H9.23555C8.80982 22.9473 8.46484 23.2924 8.46484 23.718V23.7223V31.5848C8.46484 32.0106 8.80982 32.3557 9.23555 32.3557Z" fill="#2496ED"/>
<path d="M21.4002 32.3557H30.2272C30.653 32.3557 30.998 32.0106 30.998 31.585V23.7223C31.0003 23.2966 30.6572 22.9496 30.2314 22.9473C30.23 22.9473 30.2285 22.9473 30.2271 22.9473H21.4C20.9719 22.9473 20.625 23.2942 20.625 23.7223V31.5848C20.6275 32.0113 20.9738 32.3557 21.4002 32.3557Z" fill="#2496ED"/>
<path d="M33.7494 32.3557H42.5764C43.0022 32.3557 43.3471 32.0106 43.3471 31.585V23.7223C43.3495 23.2966 43.0064 22.9496 42.5806 22.9473C42.5792 22.9473 42.5777 22.9473 42.5763 22.9473H33.7492C33.3235 22.9473 32.9785 23.2924 32.9785 23.718V23.7223V31.5848C32.9787 32.0106 33.3238 32.3557 33.7494 32.3557Z" fill="#2496ED"/>
<path d="M45.9523 32.3557H54.7794C55.2058 32.3557 55.5521 32.0114 55.5545 31.585V23.7223C55.5545 23.2942 55.2075 22.9473 54.7794 22.9473H45.9523C45.5266 22.9473 45.1816 23.2924 45.1816 23.718V23.7223V31.5848C45.1816 32.0106 45.5268 32.3557 45.9523 32.3557Z" fill="#2496ED"/>
<path d="M21.4 21.045H30.2271C30.6534 21.0426 30.9978 20.6962 30.9978 20.27V12.4074C30.9978 11.9817 30.6527 11.6367 30.2271 11.6367H21.4C20.9738 11.6367 20.6274 11.981 20.625 12.4074V20.27C20.6274 20.6971 20.9729 21.0426 21.4 21.045Z" fill="#2496ED"/>
<path d="M33.7492 21.045H42.5763C43.0026 21.0426 43.347 20.6962 43.347 20.27V12.4074C43.347 11.9817 43.0019 11.6367 42.5763 11.6367H33.7492C33.3235 11.6367 32.9785 11.9818 32.9785 12.4074V20.27C32.9785 20.6962 33.3229 21.0426 33.7492 21.045Z" fill="#2496ED"/>
<path d="M45.9523 21.045H54.7794C55.2065 21.0426 55.5521 20.6971 55.5545 20.27V12.4074C55.5521 11.981 55.2058 11.6367 54.7794 11.6367H45.9523C45.5266 11.6367 45.1816 11.9818 45.1816 12.4074V20.27C45.1816 20.6962 45.5261 21.0426 45.9523 21.045Z" fill="#2496ED"/>
<path d="M45.9523 9.72873H54.7794C55.2058 9.72873 55.5521 9.38431 55.5545 8.95802V1.09102C55.5521 0.664589 55.2058 0.320312 54.7794 0.320312H45.9523C45.5266 0.320312 45.1816 0.665289 45.1816 1.09102V8.95789C45.1816 9.38361 45.5268 9.72873 45.9523 9.72873Z" fill="#2496ED"/>
<path d="M58.2629 32.3557H67.09C67.5164 32.3557 67.8626 32.0114 67.865 31.585V23.7223C67.865 23.2942 67.5181 22.9473 67.09 22.9473H58.2629C57.8373 22.9473 57.4922 23.2924 57.4922 23.718V23.7223V31.5848C57.4922 32.0106 57.8373 32.3557 58.2629 32.3557Z" fill="#2496ED"/>
</svg>
