<svg width="68" height="101" viewBox="0 0 68 101" fill="none" xmlns="http://www.w3.org/2000/svg">
<path d="M17.3327 100.199C26.5327 100.199 33.9994 92.7328 33.9994 83.5328V66.8662H17.3327C8.13268 66.8662 0.666016 74.3329 0.666016 83.5328C0.666016 92.7328 8.13268 100.199 17.3327 100.199Z" fill="#0ACF83"/>
<path d="M0.666016 50.1989C0.666016 40.9989 8.13268 33.5322 17.3327 33.5322H33.9994V66.8655H17.3327C8.13268 66.8655 0.666016 59.3988 0.666016 50.1989Z" fill="#A259FF"/>
<path d="M0.666016 16.8659C0.666016 7.66588 8.13268 0.199219 17.3327 0.199219H33.9994V33.5325H17.3327C8.13268 33.5325 0.666016 26.0659 0.666016 16.8659Z" fill="#F24E1E"/>
<path d="M34 0.199219H50.6667C59.8667 0.199219 67.3334 7.66588 67.3334 16.8659C67.3334 26.0659 59.8667 33.5325 50.6667 33.5325H34V0.199219Z" fill="#FF7262"/>
<path d="M67.3334 50.1989C67.3334 59.3988 59.8667 66.8655 50.6667 66.8655C41.4667 66.8655 34 59.3988 34 50.1989C34 40.9989 41.4667 33.5322 50.6667 33.5322C59.8667 33.5322 67.3334 40.9989 67.3334 50.1989Z" fill="#1ABCFE"/>
</svg>
