<svg width="100" height="76" viewBox="0 0 100 76" fill="none" xmlns="http://www.w3.org/2000/svg">
<path d="M86.1078 43.8133C82.6191 43.8315 79.5871 44.6718 77.0482 45.9138C76.1167 44.069 75.1851 42.4251 75.0207 41.2196C74.8381 39.8132 74.6189 38.9547 74.8381 37.2743C75.0573 35.5939 76.0436 33.2011 76.0253 33.0184C76.0071 32.8358 75.8061 31.9773 73.797 31.959C71.7878 31.9408 70.0526 32.3426 69.8516 32.8723C69.6507 33.402 69.2671 34.6075 69.0114 35.8496C68.6644 37.6761 64.993 44.1968 62.8925 47.6125C62.2167 46.2791 61.6322 45.1101 61.5043 44.1786C61.3217 42.7722 61.1025 41.9137 61.3217 40.2333C61.5409 38.5528 62.5272 36.1601 62.5089 35.9774C62.4907 35.7948 62.2898 34.9363 60.2806 34.918C58.2714 34.8998 56.5362 35.3016 56.3352 35.8313C56.1343 36.361 55.9151 37.6031 55.495 38.8086C55.0749 40.0141 50.1981 50.9002 48.9195 53.7131C48.2619 55.1561 47.6957 56.3068 47.2939 57.0922C47.2939 57.0922 47.2756 57.147 47.2208 57.2383C46.8738 57.9142 46.6729 58.2795 46.6729 58.2795C46.6729 58.2795 46.6729 58.2795 46.6729 58.2977C46.3989 58.7909 46.1066 59.2475 45.9605 59.2475C45.8509 59.2475 45.65 57.9324 45.997 56.1424C46.7276 52.3615 48.4629 46.48 48.4446 46.2791C48.4446 46.1695 48.7734 45.1467 47.3121 44.617C45.8874 44.0873 45.376 44.964 45.2482 44.964C45.1203 44.964 45.029 45.2745 45.029 45.2745C45.029 45.2745 46.6181 38.6624 41.9969 38.6624C39.111 38.6624 35.1291 41.8224 33.1565 44.6718C31.9144 45.3476 29.2659 46.7905 26.4348 48.3431C25.3571 48.9459 24.243 49.5486 23.2018 50.1148C23.1288 50.0418 23.0557 49.9505 22.9826 49.8774C17.3934 43.9046 7.05523 39.6853 7.4936 31.6668C7.65799 28.7443 8.66258 21.0729 27.3481 11.7575C42.7275 4.17739 54.9653 6.27791 57.0841 10.9356C60.1162 17.5842 50.5269 29.9316 34.636 31.7216C28.5719 32.3974 25.3937 30.0594 24.59 29.1827C23.7498 28.2694 23.6219 28.2146 23.3114 28.3973C22.8 28.6713 23.1288 29.4932 23.3114 29.9681C23.7863 31.2102 25.7407 33.402 29.0468 34.4797C31.9692 35.4295 39.0745 35.9592 47.6774 32.6349C57.3033 28.9087 64.8286 18.5522 62.6185 9.87619C60.4084 1.07227 45.7961 -1.83192 31.9692 3.08147C23.7498 6.00393 14.8363 10.6068 8.42513 16.5979C0.808465 23.7214 -0.397049 29.9133 0.096116 32.507C1.86786 41.7128 14.5623 47.7038 19.6401 52.1423C19.3844 52.2884 19.1469 52.4163 18.946 52.5259C16.4071 53.7862 6.72645 58.8457 4.31542 64.1975C1.57561 70.2616 4.75379 74.6087 6.85431 75.1932C13.3751 77.0015 20.0784 73.7503 23.6767 68.3802C27.275 63.0102 26.8366 56.0328 25.1745 52.8364C25.1562 52.7999 25.138 52.7633 25.1014 52.7268C25.759 52.3432 26.4348 51.9414 27.0924 51.5578C28.3892 50.7907 29.6678 50.0783 30.7637 49.4938C30.1427 51.1925 29.686 53.22 29.4669 56.1424C29.1929 59.5763 30.5993 64.0331 32.4441 65.7865C33.2661 66.5537 34.2341 66.572 34.8551 66.572C37.0105 66.572 37.9785 64.7819 39.0562 62.6632C40.3713 60.0695 41.5585 57.0557 41.5585 57.0557C41.5585 57.0557 40.079 65.202 44.0974 65.202C45.5587 65.202 47.0382 63.3024 47.6957 62.3344C47.6957 62.3526 47.6957 62.3526 47.6957 62.3526C47.6957 62.3526 47.7322 62.2979 47.8053 62.17C47.9514 61.9325 48.0428 61.7864 48.0428 61.7864C48.0428 61.7864 48.0428 61.7682 48.0428 61.7499C48.6273 60.727 49.9424 58.4073 51.8968 54.5533C54.4174 49.5851 56.8467 43.3749 56.8467 43.3749C56.8467 43.3749 57.0659 44.8909 57.8147 47.4116C58.2531 48.8911 59.1664 50.5167 59.897 52.0875C59.3125 52.9094 58.9472 53.3661 58.9472 53.3661C58.9472 53.3661 58.9472 53.3661 58.9655 53.3843C58.4906 54.0054 57.9791 54.6812 57.4129 55.3387C55.422 57.7132 53.0475 60.4348 52.7187 61.2202C52.3351 62.1517 52.4265 62.8275 53.1571 63.3755C53.6868 63.7774 54.6366 63.8321 55.6046 63.7773C57.3946 63.6495 58.6549 63.2111 59.276 62.9371C60.244 62.5901 61.3765 62.0604 62.4359 61.275C64.3903 59.832 65.5775 57.768 65.4679 55.0465C65.4131 53.5487 64.92 52.051 64.3172 50.6445C64.4999 50.3888 64.6643 50.1331 64.8469 49.8774C67.9338 45.3658 70.3265 40.4159 70.3265 40.4159C70.3265 40.4159 70.5457 41.9319 71.2946 44.4526C71.6599 45.7311 72.4088 47.1193 73.0663 48.471C70.1621 50.8272 68.3721 53.567 67.7328 55.357C66.5821 58.6813 67.4771 60.1791 69.1758 60.5261C69.943 60.6905 71.0389 60.3252 71.8426 59.9781C72.8654 59.6494 74.0709 59.0831 75.2216 58.2429C77.176 56.8 79.0574 54.7908 78.9478 52.0692C78.893 50.8272 78.5642 49.6034 78.1076 48.4162C80.5734 47.3933 83.7516 46.8271 87.8065 47.302C96.5008 48.3248 98.2178 53.7496 97.889 56.0328C97.5602 58.316 95.7337 59.558 95.1309 59.9416C94.5282 60.3252 94.3273 60.453 94.382 60.727C94.4551 61.1289 94.7474 61.1106 95.2588 61.0375C95.9711 60.9097 99.8251 59.1927 99.9895 54.9917C100.264 49.6217 95.1492 43.7585 86.1078 43.8133ZM19.0373 66.4258C16.1514 69.5675 12.133 70.7547 10.3978 69.7501C8.53473 68.6725 9.26534 64.0331 12.8088 60.7088C14.9641 58.6813 17.7405 56.8 19.5853 55.6492C20.0054 55.3935 20.6264 55.0282 21.3753 54.5716C21.5032 54.4985 21.5762 54.462 21.5762 54.462C21.7223 54.3707 21.8685 54.2793 22.0146 54.188C23.3114 58.937 22.0694 63.1198 19.0373 66.4258ZM40.0425 52.1423C39.0379 54.5899 36.9374 60.8549 35.6588 60.5078C34.5629 60.2156 33.8871 55.4666 35.4396 50.7724C36.2251 48.4162 37.8872 45.6033 38.8553 44.5074C40.4261 42.7539 42.1613 42.1694 42.5814 42.8817C43.1111 43.8133 40.6635 50.608 40.0425 52.1423ZM57.3764 60.4348C56.9563 60.654 56.5544 60.8001 56.3718 60.6905C56.2439 60.6174 56.5544 60.3252 56.5544 60.3252C56.5544 60.3252 58.728 57.9872 59.5865 56.9278C60.0796 56.3068 60.6641 55.5762 61.2852 54.7542C61.2852 54.8273 61.2852 54.9186 61.2852 54.9917C61.2852 57.7863 58.5819 59.6676 57.3764 60.4348ZM70.7466 57.3845C70.4361 57.1653 70.4909 56.4347 71.532 54.1515C71.9339 53.2565 72.8837 51.7587 74.5093 50.3158C74.692 50.9002 74.8198 51.4665 74.8016 51.9962C74.7833 55.5214 72.2627 56.8365 70.7466 57.3845Z" fill="#CD6799"/>
</svg>
