<svg width="100" height="81" viewBox="0 0 100 81" fill="none" xmlns="http://www.w3.org/2000/svg">
<path fill-rule="evenodd" clip-rule="evenodd" d="M20.7703 0.369141C15.0645 0.369141 10.8424 5.36328 11.0314 10.7793C11.2129 15.9826 10.9771 22.7217 9.28066 28.2174C7.57812 33.7285 4.70078 37.2209 0 37.6691V42.7301C4.70078 43.1793 7.57812 46.6699 9.28047 52.1818C10.9771 57.6775 11.2127 64.4166 11.0312 69.6199C10.8422 75.0352 15.0643 80.0301 20.7711 80.0301H79.2373C84.9432 80.0301 89.1645 75.0359 88.9754 69.6199C88.7939 64.4166 89.0297 57.6775 90.7262 52.1818C92.4287 46.6699 95.299 43.1779 100 42.7301V37.6691C95.2992 37.2199 92.4289 33.7293 90.7262 28.2174C89.0295 22.7225 88.7939 15.9826 88.9754 10.7793C89.1645 5.36406 84.9432 0.369141 79.2373 0.369141H20.7695H20.7703ZM67.7967 49.4057C67.7967 56.8633 62.234 61.3861 53.0025 61.3861H37.2881C36.8386 61.3861 36.4075 61.2076 36.0896 60.8897C35.7717 60.5718 35.5932 60.1407 35.5932 59.6912V20.7082C35.5932 20.2587 35.7717 19.8276 36.0896 19.5097C36.4075 19.1919 36.8386 19.0133 37.2881 19.0133H52.9131C60.6105 19.0133 65.6623 23.1828 65.6623 29.5844C65.6623 34.0775 62.2639 38.1 57.9344 38.8047V39.0391C63.8281 39.6855 67.7967 43.7676 67.7967 49.4057ZM51.2891 24.3861H42.3289V37.0424H49.8756C55.7096 37.0424 58.9264 34.6932 58.9264 30.4941C58.9258 26.559 56.1602 24.3861 51.2891 24.3861ZM42.3289 42.0641V56.0115H51.6187C57.693 56.0115 60.9104 53.5742 60.9104 48.9937C60.9104 44.4133 57.6027 42.0633 51.2281 42.0633H42.3289V42.0641Z" fill="#7952B3"/>
</svg>
